<?xml version="1.0" encoding="UTF-8"?>
<svg width="103px" height="31px" viewBox="0 0 103 31" version="1.1" xmlns="http://www.w3.org/2000/svg" xmlns:xlink="http://www.w3.org/1999/xlink">
    <!-- Generator: Sketch 46.2 (44496) - http://www.bohemiancoding.com/sketch -->
    <title>Combined-Shape Copy</title>
    <desc>Created with Sketch.</desc>
    <defs></defs>
    <g id="Page-1" stroke="none" stroke-width="1" fill="none" fill-rule="evenodd">
        <g id="01" transform="translate(-168.000000, -23.000000)" fill-rule="nonzero" fill="#FFFFFF">
            <g id="title" transform="translate(168.000000, 9.000000)">
                <path d="M19.8870941,28.4700276 L23.7557189,15.7463984 L23.095716,15.2430078 L23.4257183,16.3365805 L23.1507164,15.2603662 L22.4907136,14.7569756 L18.2568391,28.4700276 L10.5996715,28.4700276 C10.1440361,28.4700276 9.77466927,29.0528956 9.77466927,29.7718996 C9.77466927,30.4909038 10.1440361,31.0737716 10.5996715,31.0737716 L18.417077,31.0737716 L21.6327112,41.5061063 L2.70164477,29.4941671 L23.3707179,16.3192221 L23.095716,15.2430078 L23.7997192,15.6596069 C23.928637,15.2287453 23.8779708,14.717378 23.6718629,14.369176 C23.4657532,14.0209739 23.1459014,13.9063813 22.8647162,14.0800024 L0.457636234,28.4353112 C0.180817944,28.614246 0,29.0394729 0,29.5115254 C0,29.9835779 0.180817944,30.4088045 0.457636234,30.5877394 L22.8647162,44.7868235 C23.1459014,44.9604449 23.4657532,44.845852 23.6718629,44.4976499 C23.8779708,44.1494479 23.928637,43.6380806 23.7997192,43.207219 L20.0622681,31.0737716 L78.5753997,31.0737716 L87.4459448,44.5611658 L87.4459448,44.682674 C87.7497023,45.1284565 88.2249528,45.1012558 88.5074478,44.6219197 C88.7899427,44.1425837 88.7727059,43.392627 88.4689484,42.9468445 L80.6619174,31.0737716 L85.5922967,31.0737716 L94.4419687,44.5611658 L94.4419687,44.682674 C94.7457263,45.1284565 95.2209785,45.1012558 95.5034734,44.6219197 C95.7859684,44.1425837 95.7687299,43.392627 95.4649723,42.9468445 L87.6579414,31.0737716 L92.588886,31.0737716 L101.448995,44.5611658 L101.448995,44.682674 C101.752752,45.1284565 102.228003,45.1012558 102.510497,44.6219197 C102.792992,44.1425837 102.775756,43.392627 102.471998,42.9468445 L94.6649654,31.0737716 L102.174996,31.0737716 C102.630633,31.0737716 103,30.4909038 103,29.7718996 C103,29.0528956 102.630633,28.4700276 102.174996,28.4700276 L94.3891742,28.4700276 L102.471998,16.1456391 C102.668495,15.8572686 102.752573,15.4253793 102.692563,15.0126604 C102.632551,14.5999412 102.437567,14.2690939 102.18106,14.1447455 C101.924553,14.0203971 101.645491,14.1214392 101.448995,14.40981 L92.2012966,28.4700276 L87.3821502,28.4700276 L95.4649723,16.1456391 C95.6614692,15.8572686 95.7455492,15.4253793 95.6855374,15.0126604 C95.6255272,14.5999412 95.4305434,14.2690939 95.1740364,14.1447455 C94.9175277,14.0203971 94.6384656,14.1214392 94.4419687,14.40981 L85.205164,28.4700276 L80.3861245,28.4700276 L88.4689484,16.1456391 C88.7727059,15.6998566 88.7899427,14.9499 88.5074478,14.4705639 C88.2249528,13.9912279 87.7497023,13.9640275 87.4459448,14.40981 L78.1873536,28.4700276 L19.8870941,28.4700276 Z" id="Combined-Shape-Copy" transform="translate(51.500000, 29.500000) scale(-1, 1) translate(-51.500000, -29.500000) "></path>
            </g>
        </g>
    </g>
</svg>