<?xml version="1.0" encoding="UTF-8"?>
<svg width="12px" height="9px" viewBox="0 0 12 9" version="1.1" xmlns="http://www.w3.org/2000/svg" xmlns:xlink="http://www.w3.org/1999/xlink">
    <!-- Generator: Sketch 47.1 (45422) - http://www.bohemiancoding.com/sketch -->
    <title>Shape</title>
    <desc>Created with Sketch.</desc>
    <defs></defs>
    <g id="final" stroke="none" stroke-width="1" fill="none" fill-rule="evenodd">
        <g id="home" transform="translate(-750.000000, -951.000000)" fill-rule="nonzero" fill="#FFFFFF">
            <g id="footer-links" transform="translate(20.000000, 936.000000)">
                <g id="link" transform="translate(729.000000, 11.000000)">
                    <path d="M4.67614363,8.98680739 C4.35245802,8.48812665 4.19061522,7.9182058 4.19061522,7.27704485 C4.19061522,6.18469657 4.62990283,5.2823219 5.32351483,4.73614776 C5.09231083,4.30870712 4.62990283,4 4.02877242,4 C3.01147481,4 2.43346481,4.85488127 2.43346481,5.82849604 C2.43346481,6.35092348 2.59530761,6.80211082 2.94211361,7.11081794 C3.12707682,7.30079156 3.28891962,7.53825858 3.28891962,7.77572559 C3.28891962,8.01319261 3.19643802,8.25065963 2.61842801,8.51187335 C1.78609361,8.89182058 1.0231204,9.41424802 1,10.1978892 C1.0231204,10.7203166 1.346806,11.1240106 1.83233441,11.1240106 L2.59530761,11.1240106 C2.71090961,11.1240106 2.82651161,11.0527704 2.89587281,10.9340369 C3.26579922,10.2453826 3.95941122,9.81794195 4.53742123,9.50923483 C4.74550483,9.41424802 4.79174563,9.1530343 4.67614363,8.98680739 Z M11.4273005,8.51187335 C10.8492905,8.25065963 10.7568089,8.03693931 10.7568089,7.77572559 C10.7568089,7.51451187 10.9186517,7.27704485 11.1036149,7.11081794 C11.4504209,6.77836412 11.6122637,6.35092348 11.6122637,5.82849604 C11.6122637,4.85488127 11.0573741,4 10.0169561,4 C9.41582566,4 8.95341766,4.30870712 8.69909326,4.73614776 C9.39270526,5.2823219 9.83199287,6.18469657 9.83199287,7.27704485 C9.83199287,7.9182058 9.67015006,8.48812665 9.34646446,8.98680739 C9.23086246,9.176781 9.30022366,9.41424802 9.48518686,9.50923483 C10.0631969,9.79419525 10.7568089,10.2453826 11.1267353,10.9340369 C11.1960965,11.0527704 11.3116985,11.1240106 11.4273005,11.1240106 L12.1902737,11.1240106 C12.6758021,11.1240106 12.9994877,10.7203166 12.9994877,10.1978892 C13.0226081,9.41424802 12.2596349,8.89182058 11.4273005,8.51187335 L11.4273005,8.51187335 Z M8.56037086,10.2453826 C7.93612005,9.96042216 7.82051805,9.69920844 7.82051805,9.43799472 C7.82051805,9.1530343 8.00548125,8.89182058 8.21356485,8.70184697 C8.58349126,8.34564644 8.79157486,7.8469657 8.79157486,7.27704485 C8.79157486,6.20844327 8.16732405,5.2823219 7.03442444,5.2823219 C5.90152484,5.2823219 5.27727403,6.20844327 5.27727403,7.27704485 C5.27727403,7.8469657 5.48535763,8.34564644 5.85528404,8.70184697 C6.06336764,8.91556728 6.24833084,9.176781 6.24833084,9.43799472 C6.24833084,9.72295515 6.15584924,9.96042216 5.50847803,10.2453826 C4.58366203,10.6490765 3.70508682,11.1002639 3.68196642,11.9551451 C3.68196642,12.525066 4.09813362,13 4.62990283,13 L9.43894606,13 C9.97071527,13 10.3868825,12.525066 10.3868825,11.9551451 C10.3637621,11.1240106 9.48518686,10.6728232 8.56037086,10.2453826 Z" id="Shape"></path>
                </g>
            </g>
        </g>
    </g>
</svg>