<?xml version="1.0" encoding="UTF-8"?>
<svg width="16px" height="12px" viewBox="0 0 16 12" version="1.1" xmlns="http://www.w3.org/2000/svg" xmlns:xlink="http://www.w3.org/1999/xlink">
    <!-- Generator: Sketch 46.2 (44496) - http://www.bohemiancoding.com/sketch -->
    <title>icon</title>
    <desc>Created with Sketch.</desc>
    <defs></defs>
    <g id="Page-1" stroke="none" stroke-width="1" fill="none" fill-rule="evenodd">
        <g id="01" transform="translate(-63.000000, -559.000000)" fill-rule="nonzero" fill="#54698D">
            <g id="content" transform="translate(20.000000, 77.000000)">
                <g id="card" transform="translate(20.000000, 267.000000)">
                    <g id="rows" transform="translate(15.000000, 117.000000)">
                        <g id="row" transform="translate(0.000000, 82.000000)">
                            <g id="icon">
                                <path d="M10.9230769,24.6153846 L14.9230769,24.6153846 C15.1692308,24.6153846 15.3846154,24.4 15.3846154,24.1538462 L15.3846154,16.9230769 C15.3846154,16.4 14.8307692,16 14.4,16 L10.9230769,16 C10.6769231,16 10.4615385,16.2153846 10.4615385,16.4615385 L10.4615385,24.1538462 C10.4615385,24.4 10.6769231,24.6153846 10.9230769,24.6153846 Z M23.1384615,17.4153846 C22.9538462,17.3538462 22.7692308,17.5076923 22.7692308,17.7230769 L22.7692308,25.3846154 C22.7692308,25.6307692 22.5538462,25.8461538 22.3076923,25.8461538 L9.69230769,25.8461538 C9.44615385,25.8461538 9.23076923,25.6307692 9.23076923,25.3846154 L9.23076923,17.7538462 C9.23076923,17.5384615 8.98461538,17.3846154 8.8,17.4769231 C8.33846154,17.6923077 8,18.1846154 8,18.7692308 L8,25.8461538 C8,26.5230769 8.55384615,27.0769231 9.23076923,27.0769231 L14.3076923,27.0769231 C14.5538462,27.0769231 14.7692308,27.2923077 14.7692308,27.5384615 C14.7692308,27.7846154 14.9846154,28 15.2307692,28 L16.7692308,28 C17.0153846,28 17.2307692,27.7846154 17.2307692,27.5384615 C17.2307692,27.2923077 17.4461538,27.0769231 17.6923077,27.0769231 L22.7692308,27.0769231 C23.4461538,27.0769231 24,26.5230769 24,25.8461538 L24,18.7692308 C24,18.1230769 23.7846154,17.5692308 23.1384615,17.4153846 L23.1384615,17.4153846 Z M17.0769231,24.6153846 L21.0769231,24.6153846 C21.3230769,24.6153846 21.5384615,24.4 21.5384615,24.1538462 L21.5384615,16.4615385 C21.5384615,16.2153846 21.3230769,16 21.0769231,16 L17.6,16 C17.1384615,16 16.6153846,16.4 16.6153846,16.9230769 L16.6153846,24.1538462 C16.6153846,24.4 16.8307692,24.6153846 17.0769231,24.6153846 L17.0769231,24.6153846 Z"></path>
                            </g>
                        </g>
                    </g>
                </g>
            </g>
        </g>
    </g>
</svg>