<?xml version="1.0" encoding="UTF-8"?>
<svg width="16px" height="12px" viewBox="0 0 16 12" version="1.1" xmlns="http://www.w3.org/2000/svg" xmlns:xlink="http://www.w3.org/1999/xlink">
    <!-- Generator: Sketch 46.2 (44496) - http://www.bohemiancoding.com/sketch -->
    <title>icon</title>
    <desc>Created with Sketch.</desc>
    <defs></defs>
    <g id="Page-1" stroke="none" stroke-width="1" fill="none" fill-rule="evenodd">
        <g id="01" transform="translate(-91.000000, -543.000000)" fill-rule="nonzero" fill="#FFFFFF">
            <g id="content" transform="translate(20.000000, 77.000000)">
                <g id="card" transform="translate(20.000000, 267.000000)">
                    <g id="rows" transform="translate(15.000000, 117.000000)">
                        <g id="row" transform="translate(0.000000, 82.000000)">
                            <g id="icon">
                                <path d="M38.9230769,8.61538462 L42.9230769,8.61538462 C43.1692308,8.61538462 43.3846154,8.4 43.3846154,8.15384615 L43.3846154,0.923076923 C43.3846154,0.4 42.8307692,0 42.4,0 L38.9230769,0 C38.6769231,0 38.4615385,0.215384615 38.4615385,0.461538462 L38.4615385,8.15384615 C38.4615385,8.4 38.6769231,8.61538462 38.9230769,8.61538462 Z M51.1384615,1.41538462 C50.9538462,1.35384615 50.7692308,1.50769231 50.7692308,1.72307692 L50.7692308,9.38461538 C50.7692308,9.63076923 50.5538462,9.84615385 50.3076923,9.84615385 L37.6923077,9.84615385 C37.4461538,9.84615385 37.2307692,9.63076923 37.2307692,9.38461538 L37.2307692,1.75384615 C37.2307692,1.53846154 36.9846154,1.38461538 36.8,1.47692308 C36.3384615,1.69230769 36,2.18461538 36,2.76923077 L36,9.84615385 C36,10.5230769 36.5538462,11.0769231 37.2307692,11.0769231 L42.3076923,11.0769231 C42.5538462,11.0769231 42.7692308,11.2923077 42.7692308,11.5384615 C42.7692308,11.7846154 42.9846154,12 43.2307692,12 L44.7692308,12 C45.0153846,12 45.2307692,11.7846154 45.2307692,11.5384615 C45.2307692,11.2923077 45.4461538,11.0769231 45.6923077,11.0769231 L50.7692308,11.0769231 C51.4461538,11.0769231 52,10.5230769 52,9.84615385 L52,2.76923077 C52,2.12307692 51.7846154,1.56923077 51.1384615,1.41538462 L51.1384615,1.41538462 Z M45.0769231,8.61538462 L49.0769231,8.61538462 C49.3230769,8.61538462 49.5384615,8.4 49.5384615,8.15384615 L49.5384615,0.461538462 C49.5384615,0.215384615 49.3230769,0 49.0769231,0 L45.6,0 C45.1384615,0 44.6153846,0.4 44.6153846,0.923076923 L44.6153846,8.15384615 C44.6153846,8.4 44.8307692,8.61538462 45.0769231,8.61538462 L45.0769231,8.61538462 Z"></path>
                            </g>
                        </g>
                    </g>
                </g>
            </g>
        </g>
    </g>
</svg>