<?xml version="1.0" encoding="UTF-8"?>
<svg width="12px" height="10px" viewBox="0 0 12 10" version="1.1" xmlns="http://www.w3.org/2000/svg" xmlns:xlink="http://www.w3.org/1999/xlink">
    <!-- Generator: Sketch 47.1 (45422) - http://www.bohemiancoding.com/sketch -->
    <title>Shape</title>
    <desc>Created with Sketch.</desc>
    <defs></defs>
    <g id="final" stroke="none" stroke-width="1" fill="none" fill-rule="evenodd">
        <g id="home" transform="translate(-1082.000000, -950.000000)" fill-rule="nonzero" fill="#FFFFFF">
            <g id="footer-links" transform="translate(20.000000, 936.000000)">
                <g id="link" transform="translate(1061.000000, 11.000000)">
                    <path d="M12.0027498,8.97600009 C11.9787498,8.88000009 11.9787498,8.78400009 12.0267498,8.68800009 C12.3387498,8.13600008 12.5307498,7.51200007 12.5307498,6.84000006 C12.5307498,4.72800003 10.7067498,3 8.45074973,3 C7.39474972,3 6.4347497,3.38400001 5.71474969,4.00800002 C8.18674973,4.29600002 10.1307498,6.31200005 10.1307498,8.76000009 C10.1307498,9.3600001 10.0107498,9.93600011 9.79474975,10.4640001 C10.0587498,10.3680001 10.3227498,10.2480001 10.5627498,10.1280001 C10.6587498,10.0800001 10.7547498,10.0560001 10.8507498,10.1040001 L12.3147498,10.6800001 C12.4587498,10.7280001 12.5787498,10.6080001 12.5307498,10.4640001 L12.0027498,8.97600009 L12.0027498,8.97600009 Z M5.09074968,4.92000003 C2.83474965,4.92000003 1.01074962,6.64800006 1.01074962,8.76000009 C1.01074962,9.4320001 1.20274962,10.0560001 1.51474963,10.6080001 C1.56274963,10.7040001 1.58674963,10.8000001 1.53874963,10.8960001 L1.01074962,12.3600001 C0.962749618,12.5040001 1.08274962,12.6240001 1.22674962,12.5760001 L2.69074964,12.0000001 C2.78674965,11.9760001 2.88274965,11.9760001 2.97874965,12.0240001 C3.60274966,12.3840001 4.32274967,12.5760001 5.09074968,12.5760001 C7.34674972,12.5760001 9.17074974,10.8480001 9.17074974,8.73600009 C9.17074974,6.64800006 7.34674972,4.92000003 5.09074968,4.92000003 Z" id="Shape"></path>
                </g>
            </g>
        </g>
    </g>
</svg>