<?xml version="1.0" encoding="UTF-8"?>
<svg width="12px" height="15px" viewBox="0 0 12 15" version="1.1" xmlns="http://www.w3.org/2000/svg" xmlns:xlink="http://www.w3.org/1999/xlink">
    <!-- Generator: Sketch 47.1 (45422) - http://www.bohemiancoding.com/sketch -->
    <title>Shape</title>
    <desc>Created with Sketch.</desc>
    <defs></defs>
    <g id="final" stroke="none" stroke-width="1" fill="none" fill-rule="evenodd">
        <g id="home" transform="translate(-460.000000, -948.000000)" fill-rule="nonzero" fill="#FFFFFF">
            <g id="footer-links" transform="translate(20.000000, 936.000000)">
                <g id="link" transform="translate(439.000000, 11.000000)">
                    <path d="M7.24702252,1 C8.2370225,1 9.01702248,1.77999998 9.01702248,2.76999995 C9.01702248,3.75999993 8.2070225,4.53999991 7.24702252,4.53999991 C6.28702255,4.53999991 5.47702257,3.75999993 5.47702257,2.76999995 C5.47702257,1.77999998 6.25702255,1 7.24702252,1 L7.24702252,1 Z M11.8070224,5.82999987 C11.4470224,5.79999987 11.1170224,6.03999987 11.0870224,6.36999986 L10.9070224,8.10999981 C10.8470224,8.10999981 10.8170224,8.19999981 10.7570224,8.19999981 L9.10702247,8.19999981 L7.9670225,6.18999986 C7.87702251,6.00999987 7.69702251,5.85999987 7.48702252,5.82999987 L5.74702256,5.58999988 C5.44702257,5.55999988 5.14702258,5.70999988 5.02702258,6.00999987 L3.70702262,9.39999978 C3.61702262,9.66999977 3.73702262,9.93999976 3.97702261,10.0899998 L7.21702252,12.3099997 L7.48702252,14.8299996 C7.51702252,15.1599996 7.81702251,15.3999996 8.1470225,15.3999996 C8.53702249,15.3999996 8.83702248,15.0999996 8.80702248,14.7399996 L8.50702249,11.6499997 C8.50702249,11.4999997 8.41702249,11.3499997 8.2670225,11.2299997 L6.49702254,9.24999978 L7.15702252,7.62999982 L7.9370225,8.97999979 C8.0570225,9.15999978 8.2670225,9.36999978 8.50702249,9.36999978 L10.7870224,9.36999978 L10.1270224,14.7699996 C10.0970224,15.0999996 10.3370224,15.3699996 10.6970224,15.3999996 C10.7270224,15.3999996 10.7570224,15.3699996 10.7570224,15.3699996 C11.0870224,15.3699996 11.3570224,15.1299996 11.4170224,14.7999996 L12.4070224,6.45999986 C12.4370224,6.15999986 12.1670224,5.85999987 11.8070224,5.82999987 Z M2.56702265,8.7099998 L3.67702262,5.85999987 C3.73702262,5.67999988 3.82702261,5.49999988 3.94702261,5.31999989 L3.79702261,5.28999989 C2.83702264,5.16999989 1.93702266,5.73999987 1.63702267,6.60999985 L1.03702269,8.16999981 C0.91702269,8.4999998 1.09702269,8.88999979 1.45702268,8.97999979 L1.72702267,9.03999979 C2.08702266,9.18999978 2.44702265,9.00999979 2.56702265,8.7099998 L2.56702265,8.7099998 Z M2.98702264,10.9599997 L1.63702267,14.9799996 C1.57702267,15.1899996 1.72702267,15.3699996 1.93702266,15.3699996 L2.68702264,15.3699996 C2.95702264,15.3699996 3.22702263,15.1899996 3.31702263,14.9499996 L4.63702259,12.0399997 L3.13702263,11.1099997 C3.10702263,11.0499997 3.04702263,10.9899997 2.98702264,10.9599997 L2.98702264,10.9599997 Z" id="Shape"></path>
                </g>
            </g>
        </g>
    </g>
</svg>