<?xml version="1.0" encoding="UTF-8"?>
<svg width="13px" height="17px" viewBox="0 0 13 17" version="1.1" xmlns="http://www.w3.org/2000/svg" xmlns:xlink="http://www.w3.org/1999/xlink">
    <!-- Generator: Sketch 46.2 (44496) - http://www.bohemiancoding.com/sketch -->
    <title>icon</title>
    <desc>Created with Sketch.</desc>
    <defs></defs>
    <g id="Page-1" stroke="none" stroke-width="1" fill="none" fill-rule="evenodd">
        <g id="01" transform="translate(-103.000000, -453.000000)" fill-rule="nonzero" fill="#FFFFFF">
            <g id="content" transform="translate(20.000000, 77.000000)">
                <g id="card" transform="translate(20.000000, 267.000000)">
                    <g id="rows" transform="translate(15.000000, 109.000000)">
                        <g id="row">
                            <g id="icon">
                                <path d="M55.0084837,0 C56.1191566,0 56.9942322,0.875075623 56.9942322,1.98574853 C56.9942322,3.09642143 56.0854998,3.97149706 55.0084837,3.97149706 C53.9314675,3.97149706 53.0227352,3.09642143 53.0227352,1.98574853 C53.0227352,0.875075623 53.8978108,0 55.0084837,0 L55.0084837,0 Z M60.1243104,5.41873751 C59.7204293,5.38508076 59.350205,5.65433479 59.3165483,6.0245591 L59.1146078,7.97665087 C59.0472942,7.97665087 59.0136375,8.07762113 58.946324,8.07762113 L57.0952025,8.07762113 L55.8162458,5.82261857 C55.7152755,5.62067804 55.513335,5.45239427 55.2777377,5.41873751 L53.3256459,5.14948347 C52.9890784,5.11582672 52.6525108,5.28411049 52.5178838,5.62067804 L51.0369866,9.42389132 C50.9360164,9.72680212 51.0706434,10.0297129 51.3398974,10.1979967 L54.9748269,12.6885965 L55.2777377,15.5157639 C55.3113945,15.8859882 55.647962,16.1552423 56.0181863,16.1552423 C56.4557241,16.1552423 56.7922917,15.8186747 56.7586349,15.4147937 L56.4220674,11.9481479 C56.4220674,11.7798642 56.3210971,11.6115804 56.1528133,11.4769534 L54.1670648,9.25560755 L54.9075134,7.43814279 L55.782589,8.95269676 C55.9172161,9.15463729 56.1528133,9.39023457 56.4220674,9.39023457 L58.9799807,9.39023457 L58.2395321,15.4484504 C58.2058754,15.8186747 58.4751294,16.1215855 58.8790105,16.1552423 C58.9126672,16.1552423 58.946324,16.1215855 58.946324,16.1215855 C59.3165483,16.1215855 59.6194591,15.8523315 59.6867726,15.4821072 L60.7974455,6.12552936 C60.8311022,5.78896181 60.5281915,5.45239427 60.1243104,5.41873751 L60.1243104,5.41873751 Z M49.7580299,8.64978596 L51.0033299,5.45239427 C51.0706434,5.25045374 51.1716136,5.04851321 51.3062407,4.84657268 L51.1379569,4.81291593 C50.0609407,4.67828891 49.0512381,5.31776725 48.7146705,6.29381313 L48.0415355,8.04396438 C47.9069084,8.41418868 48.108849,8.85172649 48.51273,8.95269676 L48.8156408,9.02001027 C49.2195219,9.18829404 49.6234029,8.98635351 49.7580299,8.64978596 L49.7580299,8.64978596 Z M50.2292245,11.1740426 L48.7146705,15.6840477 C48.647357,15.919645 48.8156408,16.1215855 49.0512381,16.1215855 L49.892657,16.1215855 C50.1955678,16.1215855 50.4984785,15.919645 50.5994488,15.6503909 L52.080346,12.3856857 L50.3975083,11.3423263 C50.3638515,11.2750128 50.296538,11.2076993 50.2292245,11.1740426 L50.2292245,11.1740426 Z"></path>
                            </g>
                        </g>
                    </g>
                </g>
            </g>
        </g>
    </g>
</svg>