<?xml version="1.0" encoding="UTF-8"?>
<svg width="14px" height="17px" viewBox="0 0 14 17" version="1.1" xmlns="http://www.w3.org/2000/svg" xmlns:xlink="http://www.w3.org/1999/xlink">
    <!-- Generator: Sketch 46.2 (44496) - http://www.bohemiancoding.com/sketch -->
    <title>icon</title>
    <desc>Created with Sketch.</desc>
    <defs></defs>
    <g id="Page-1" stroke="none" stroke-width="1" fill="none" fill-rule="evenodd">
        <g id="01" transform="translate(-64.000000, -469.000000)" fill-rule="nonzero" fill="#54698D">
            <g id="content" transform="translate(20.000000, 77.000000)">
                <g id="card" transform="translate(20.000000, 267.000000)">
                    <g id="rows" transform="translate(15.000000, 117.000000)">
                        <g id="row">
                            <g id="icon">
                                <path d="M16.6084837,8 C17.7191566,8 18.5942322,8.87507562 18.5942322,9.98574853 C18.5942322,11.0964214 17.6854998,11.9714971 16.6084837,11.9714971 C15.5314675,11.9714971 14.6227352,11.0964214 14.6227352,9.98574853 C14.6227352,8.87507562 15.4978108,8 16.6084837,8 L16.6084837,8 Z M21.7243104,13.4187375 C21.3204293,13.3850808 20.950205,13.6543348 20.9165483,14.0245591 L20.7146078,15.9766509 C20.6472942,15.9766509 20.6136375,16.0776211 20.546324,16.0776211 L18.6952025,16.0776211 L17.4162458,13.8226186 C17.3152755,13.620678 17.113335,13.4523943 16.8777377,13.4187375 L14.9256459,13.1494835 C14.5890784,13.1158267 14.2525108,13.2841105 14.1178838,13.620678 L12.6369866,17.4238913 C12.5360164,17.7268021 12.6706434,18.0297129 12.9398974,18.1979967 L16.5748269,20.6885965 L16.8777377,23.5157639 C16.9113945,23.8859882 17.247962,24.1552423 17.6181863,24.1552423 C18.0557241,24.1552423 18.3922917,23.8186747 18.3586349,23.4147937 L18.0220674,19.9481479 C18.0220674,19.7798642 17.9210971,19.6115804 17.7528133,19.4769534 L15.7670648,17.2556076 L16.5075134,15.4381428 L17.382589,16.9526968 C17.5172161,17.1546373 17.7528133,17.3902346 18.0220674,17.3902346 L20.5799807,17.3902346 L19.8395321,23.4484504 C19.8058754,23.8186747 20.0751294,24.1215855 20.4790105,24.1552423 C20.5126672,24.1552423 20.546324,24.1215855 20.546324,24.1215855 C20.9165483,24.1215855 21.2194591,23.8523315 21.2867726,23.4821072 L22.3974455,14.1255294 C22.4311022,13.7889618 22.1281915,13.4523943 21.7243104,13.4187375 L21.7243104,13.4187375 Z M11.3580299,16.649786 L12.6033299,13.4523943 C12.6706434,13.2504537 12.7716136,13.0485132 12.9062407,12.8465727 L12.7379569,12.8129159 C11.6609407,12.6782889 10.6512381,13.3177672 10.3146705,14.2938131 L9.64153545,16.0439644 C9.50690843,16.4141887 9.70884896,16.8517265 10.11273,16.9526968 L10.4156408,17.0200103 C10.8195219,17.188294 11.2234029,16.9863535 11.3580299,16.649786 L11.3580299,16.649786 Z M11.8292245,19.1740426 L10.3146705,23.6840477 C10.247357,23.919645 10.4156408,24.1215855 10.6512381,24.1215855 L11.492657,24.1215855 C11.7955678,24.1215855 12.0984785,23.919645 12.1994488,23.6503909 L13.680346,20.3856857 L11.9975083,19.3423263 C11.9638515,19.2750128 11.896538,19.2076993 11.8292245,19.1740426 L11.8292245,19.1740426 Z"></path>
                            </g>
                        </g>
                    </g>
                </g>
            </g>
        </g>
    </g>
</svg>